


<svg width="27" height="32" viewBox="0 0 27 32" fill="none" xmlns="http://www.w3.org/2000/svg">
<path d="M13.4988 26.3L3.86215 16.6634C3.09347 15.8947 2.58101 15.001 2.32479 13.9824C2.07481 12.9637 2.07793 11.9513 2.33416 10.9451C2.59039 9.93273 3.09972 9.05156 3.86215 8.30163C4.64332 7.53295 5.53387 7.02362 6.53378 6.77364C7.53993 6.51741 8.54297 6.51741 9.54287 6.77364C10.549 7.02987 11.4427 7.5392 12.2239 8.30163L13.4988 9.53901L14.7736 8.30163C15.5611 7.5392 16.4547 7.02987 17.4546 6.77364C18.4546 6.51741 19.4545 6.51741 20.4544 6.77364C21.4605 7.02362 22.3542 7.53295 23.1354 8.30163C23.8978 9.05156 24.4071 9.93273 24.6634 10.9451C24.9196 11.9513 24.9196 12.9637 24.6634 13.9824C24.4134 15.001 23.9041 15.8947 23.1354 16.6634L13.4988 26.3ZM13.4988 21.9504L20.9606 14.4886C21.323 14.1261 21.5636 13.7011 21.6824 13.2137C21.8074 12.7262 21.8105 12.2388 21.6918 11.7513C21.5793 11.2639 21.3418 10.8451 20.9793 10.4952C20.5981 10.1202 20.1638 9.87336 19.6763 9.75462C19.1951 9.62963 18.7108 9.62963 18.2233 9.75462C17.7421 9.87961 17.3078 10.1296 16.9203 10.5045L13.4988 13.823L10.0772 10.5045C9.68974 10.1296 9.25228 9.87961 8.76482 9.75462C8.28361 9.62963 7.79928 9.62963 7.31183 9.75462C6.83062 9.87336 6.39941 10.1202 6.0182 10.4952C5.66198 10.8451 5.4245 11.2639 5.30576 11.7513C5.18702 12.2388 5.18702 12.7262 5.30576 13.2137C5.43075 13.7011 5.67448 14.1261 6.03695 14.4886L13.4988 21.9504Z" fill="#CCCCCC"/>
<rect x="16" y="8" width="6" height="9" fill="#CCCCCC"/>
<rect x="12" y="11" width="7" height="9" fill="#CCCCCC"/>
<rect x="10" y="13" width="7" height="9" fill="#CCCCCC"/>
<rect x="5" y="8" width="7" height="9" fill="#CCCCCC"/>
<rect x="8" y="11" width="7" height="9" fill="#CCCCCC"/>
</svg>

