<svg width="27" height="26" viewBox="0 0 27 26" fill="none" xmlns="http://www.w3.org/2000/svg">
<path d="M26.4808 13.0193C26.4808 19.8827 20.6885 25.4809 13.5 25.4809C6.31154 25.4809 0.519231 19.8827 0.519231 13.0193C0.519231 6.15603 6.31154 0.557805 13.5 0.557805C20.6885 0.557805 26.4808 6.15603 26.4808 13.0193Z" stroke="white" stroke-width="1.03846"/>
<circle cx="13.5" cy="8.5" r="3" stroke="white"/>
<path d="M21.5 21C21.5 22.1311 20.7172 23.2455 19.2569 24.1046C17.8081 24.9568 15.7739 25.5 13.5 25.5C11.2261 25.5 9.19188 24.9568 7.7431 24.1046C6.28276 23.2455 5.5 22.1311 5.5 21C5.5 19.8689 6.28276 18.7545 7.7431 17.8954C9.19188 17.0432 11.2261 16.5 13.5 16.5C15.7739 16.5 17.8081 17.0432 19.2569 17.8954C20.7172 18.7545 21.5 19.8689 21.5 21Z" stroke="white"/>
</svg>
